<?xml version="1.0" encoding="UTF-8"?> <svg xmlns="http://www.w3.org/2000/svg" width="24" height="25" viewBox="0 0 24 25" fill="none"><path d="M20.317 4.28424C18.7873 3.58235 17.147 3.06524 15.4319 2.76906C15.4007 2.76335 15.3695 2.77763 15.3534 2.8062C15.1424 3.18142 14.9087 3.67092 14.7451 4.05566C12.9004 3.77949 11.0652 3.77949 9.25832 4.05566C9.09465 3.66237 8.85248 3.18142 8.64057 2.8062C8.62448 2.77859 8.59328 2.7643 8.56205 2.76906C6.84791 3.06429 5.20756 3.58141 3.67694 4.28424C3.66368 4.28995 3.65233 4.29948 3.64479 4.31185C0.533392 8.96021 -0.31895 13.4943 0.0991801 17.9722C0.101072 17.9941 0.11337 18.0151 0.130398 18.0284C2.18321 19.5359 4.17171 20.4511 6.12328 21.0578C6.15451 21.0673 6.18761 21.0559 6.20748 21.0302C6.66913 20.3997 7.08064 19.735 7.43348 19.036C7.4543 18.995 7.43442 18.9464 7.39186 18.9303C6.73913 18.6826 6.1176 18.3808 5.51973 18.0379C5.47244 18.0103 5.46865 17.9427 5.51216 17.9103C5.63797 17.816 5.76382 17.7179 5.88395 17.6189C5.90569 17.6008 5.93598 17.597 5.96153 17.6084C9.88928 19.4017 14.1415 19.4017 18.023 17.6084C18.0485 17.596 18.0788 17.5998 18.1015 17.6179C18.2216 17.717 18.3475 17.816 18.4742 17.9103C18.5177 17.9427 18.5149 18.0103 18.4676 18.0379C17.8697 18.3874 17.2482 18.6826 16.5945 18.9293C16.552 18.9455 16.533 18.995 16.5538 19.036C16.9143 19.734 17.3258 20.3988 17.7789 21.0292C17.7978 21.0559 17.8319 21.0673 17.8631 21.0578C19.8241 20.4511 21.8126 19.5359 23.8654 18.0284C23.8834 18.0151 23.8948 17.9951 23.8967 17.9732C24.3971 12.7962 23.0585 8.2993 20.3482 4.3128C20.3416 4.29948 20.3303 4.28995 20.317 4.28424ZM8.02002 15.2456C6.8375 15.2456 5.86313 14.16 5.86313 12.8267C5.86313 11.4934 6.8186 10.4078 8.02002 10.4078C9.23087 10.4078 10.1958 11.503 10.1769 12.8267C10.1769 14.16 9.22141 15.2456 8.02002 15.2456ZM15.9947 15.2456C14.8123 15.2456 13.8379 14.16 13.8379 12.8267C13.8379 11.4934 14.7933 10.4078 15.9947 10.4078C17.2056 10.4078 18.1705 11.503 18.1516 12.8267C18.1516 14.16 17.2056 15.2456 15.9947 15.2456Z" fill="#B9BBC8"></path></svg> 