<?xml version="1.0" encoding="UTF-8"?> <svg xmlns="http://www.w3.org/2000/svg" width="25" height="25" viewBox="0 0 25 25" fill="none"><g clip-path="url(#clip0_367_3134)"><path d="M12.625 2.2896C15.8313 2.2896 16.2109 2.30366 17.4719 2.35991C18.6438 2.41147 19.2766 2.60835 19.6984 2.77241C20.2563 2.98804 20.6594 3.25054 21.0766 3.66772C21.4984 4.0896 21.7563 4.48804 21.9719 5.04585C22.1359 5.46772 22.3328 6.10522 22.3844 7.27241C22.4406 8.53804 22.4547 8.91772 22.4547 12.1193C22.4547 15.3255 22.4406 15.7052 22.3844 16.9662C22.3328 18.138 22.1359 18.7709 21.9719 19.1927C21.7563 19.7505 21.4938 20.1537 21.0766 20.5709C20.6547 20.9927 20.2563 21.2505 19.6984 21.4662C19.2766 21.6302 18.6391 21.8271 17.4719 21.8787C16.2063 21.9349 15.8266 21.949 12.625 21.949C9.41875 21.949 9.03906 21.9349 7.77813 21.8787C6.60625 21.8271 5.97344 21.6302 5.55156 21.4662C4.99375 21.2505 4.59063 20.988 4.17344 20.5709C3.75156 20.149 3.49375 19.7505 3.27813 19.1927C3.11406 18.7709 2.91719 18.1334 2.86563 16.9662C2.80938 15.7005 2.79531 15.3209 2.79531 12.1193C2.79531 8.91304 2.80938 8.53335 2.86563 7.27241C2.91719 6.10054 3.11406 5.46772 3.27813 5.04585C3.49375 4.48804 3.75625 4.08491 4.17344 3.66772C4.59531 3.24585 4.99375 2.98804 5.55156 2.77241C5.97344 2.60835 6.61094 2.41147 7.77813 2.35991C9.03906 2.30366 9.41875 2.2896 12.625 2.2896ZM12.625 0.128662C9.36719 0.128662 8.95938 0.142725 7.67969 0.198975C6.40469 0.255225 5.52813 0.461475 4.76875 0.756787C3.97656 1.06616 3.30625 1.47397 2.64063 2.14429C1.97031 2.80991 1.5625 3.48023 1.25313 4.26772C0.957812 5.03179 0.751563 5.90366 0.695313 7.17866C0.639063 8.46304 0.625 8.87085 0.625 12.1287C0.625 15.3865 0.639063 15.7943 0.695313 17.074C0.751563 18.349 0.957812 19.2255 1.25313 19.9849C1.5625 20.7771 1.97031 21.4474 2.64063 22.113C3.30625 22.7787 3.97656 23.1912 4.76406 23.4958C5.52813 23.7912 6.4 23.9974 7.675 24.0537C8.95469 24.1099 9.3625 24.124 12.6203 24.124C15.8781 24.124 16.2859 24.1099 17.5656 24.0537C18.8406 23.9974 19.7172 23.7912 20.4766 23.4958C21.2641 23.1912 21.9344 22.7787 22.6 22.113C23.2656 21.4474 23.6781 20.7771 23.9828 19.9896C24.2781 19.2255 24.4844 18.3537 24.5406 17.0787C24.5969 15.799 24.6109 15.3912 24.6109 12.1334C24.6109 8.87554 24.5969 8.46772 24.5406 7.18804C24.4844 5.91304 24.2781 5.03647 23.9828 4.2771C23.6875 3.48022 23.2797 2.80991 22.6094 2.14429C21.9438 1.47866 21.2734 1.06616 20.4859 0.761475C19.7219 0.466162 18.85 0.259912 17.575 0.203662C16.2906 0.142725 15.8828 0.128662 12.625 0.128662Z" fill="#B9BBC8"></path><path d="M12.625 5.9646C9.22188 5.9646 6.46094 8.72554 6.46094 12.1287C6.46094 15.5318 9.22188 18.2927 12.625 18.2927C16.0281 18.2927 18.7891 15.5318 18.7891 12.1287C18.7891 8.72554 16.0281 5.9646 12.625 5.9646ZM12.625 16.1271C10.4172 16.1271 8.62656 14.3365 8.62656 12.1287C8.62656 9.92085 10.4172 8.13022 12.625 8.13022C14.8328 8.13022 16.6234 9.92085 16.6234 12.1287C16.6234 14.3365 14.8328 16.1271 12.625 16.1271Z" fill="#B9BBC8"></path><path d="M20.4719 5.7208C20.4719 6.51768 19.825 7.15987 19.0328 7.15987C18.2359 7.15987 17.5938 6.51299 17.5938 5.7208C17.5938 4.92393 18.2406 4.28174 19.0328 4.28174C19.825 4.28174 20.4719 4.92861 20.4719 5.7208Z" fill="#B9BBC8"></path></g><defs><clipPath id="clip0_367_3134"><rect width="24" height="24" fill="white" transform="translate(0.625 0.128662)"></rect></clipPath></defs></svg> 