<?xml version="1.0" encoding="UTF-8"?> <svg xmlns="http://www.w3.org/2000/svg" width="24" height="25" viewBox="0 0 24 25" fill="none"><g clip-path="url(#clip0_749_992)"><path d="M22.2283 0.528564H1.77167C1.30179 0.528564 0.851161 0.715222 0.518909 1.04747C0.186657 1.37973 0 1.83036 0 2.30023V22.7569C0 23.2268 0.186657 23.6774 0.518909 24.0097C0.851161 24.3419 1.30179 24.5286 1.77167 24.5286H22.2283C22.6982 24.5286 23.1488 24.3419 23.4811 24.0097C23.8133 23.6774 24 23.2268 24 22.7569V2.30023C24 1.83036 23.8133 1.37973 23.4811 1.04747C23.1488 0.715222 22.6982 0.528564 22.2283 0.528564ZM7.15333 20.9736H3.545V9.5119H7.15333V20.9736ZM5.34667 7.92356C4.93736 7.92126 4.53792 7.79776 4.19873 7.56865C3.85955 7.33954 3.59584 7.0151 3.44088 6.63625C3.28591 6.25741 3.24665 5.84116 3.32803 5.44002C3.40941 5.03888 3.6078 4.67084 3.89816 4.38235C4.18851 4.09385 4.55782 3.89783 4.95947 3.81903C5.36112 3.74022 5.77711 3.78216 6.15495 3.93955C6.53279 4.09694 6.85554 4.36273 7.08247 4.70338C7.30939 5.04402 7.43032 5.44426 7.43 5.85357C7.43386 6.1276 7.38251 6.3996 7.27901 6.65337C7.17551 6.90713 7.02198 7.13746 6.82757 7.33063C6.63316 7.5238 6.40185 7.67585 6.14742 7.77772C5.893 7.87958 5.62067 7.92919 5.34667 7.92356ZM20.4533 20.9836H16.8467V14.7219C16.8467 12.8752 16.0617 12.3052 15.0483 12.3052C13.9783 12.3052 12.9283 13.1119 12.9283 14.7686V20.9836H9.32V9.52023H12.79V11.1086H12.8367C13.185 10.4036 14.405 9.19857 16.2667 9.19857C18.28 9.19857 20.455 10.3936 20.455 13.8936L20.4533 20.9836Z" fill="#B9BBC8"></path></g><defs><clipPath id="clip0_749_992"><rect width="24" height="24" fill="white" transform="translate(0 0.528564)"></rect></clipPath></defs></svg> 