<?xml version="1.0" encoding="UTF-8"?> <svg xmlns="http://www.w3.org/2000/svg" width="25" height="25" viewBox="0 0 25 25" fill="none"><g clip-path="url(#clip0_367_3138)"><path d="M24.3859 7.32871C24.3859 7.32871 24.1516 5.67402 23.4297 4.94746C22.5156 3.99121 21.4938 3.98652 21.025 3.93027C17.6688 3.68652 12.6297 3.68652 12.6297 3.68652H12.6203C12.6203 3.68652 7.58125 3.68652 4.225 3.93027C3.75625 3.98652 2.73438 3.99121 1.82031 4.94746C1.09844 5.67402 0.86875 7.32871 0.86875 7.32871C0.86875 7.32871 0.625 9.27402 0.625 11.2146V13.0334C0.625 14.974 0.864062 16.9193 0.864062 16.9193C0.864062 16.9193 1.09844 18.574 1.81562 19.3006C2.72969 20.2568 3.92969 20.224 4.46406 20.3271C6.38594 20.51 12.625 20.5662 12.625 20.5662C12.625 20.5662 17.6688 20.5568 21.025 20.3178C21.4938 20.2615 22.5156 20.2568 23.4297 19.3006C24.1516 18.574 24.3859 16.9193 24.3859 16.9193C24.3859 16.9193 24.625 14.9787 24.625 13.0334V11.2146C24.625 9.27402 24.3859 7.32871 24.3859 7.32871ZM10.1453 15.2412V8.4959L16.6281 11.8803L10.1453 15.2412Z" fill="#B9BBC8"></path></g><defs><clipPath id="clip0_367_3138"><rect width="24" height="24" fill="white" transform="translate(0.625 0.128662)"></rect></clipPath></defs></svg> 